<mxfile host="app.diagrams.net" agent="Mozilla/5.0 (Windows NT 10.0; Win64; x64) AppleWebKit/537.36 (KHTML, like Gecko) Chrome/127.0.0.0 Safari/537.36" version="24.7.8">
  <diagram name="第 1 页" id="ZZtnOp_Xm3Je1tsyHX88">
    <mxGraphModel dx="1509" dy="785" grid="1" gridSize="10" guides="1" tooltips="1" connect="1" arrows="1" fold="1" page="1" pageScale="1" pageWidth="827" pageHeight="1169" math="0" shadow="0">
      <root>
        <mxCell id="0" />
        <mxCell id="1" parent="0" />
        <mxCell id="wKqaV-QkhD1benHEGnf--187" value="" style="rounded=0;whiteSpace=wrap;html=1;fillColor=#d5e8d4;strokeColor=#82b366;" vertex="1" parent="1">
          <mxGeometry x="827" y="40" width="170" height="270" as="geometry" />
        </mxCell>
        <mxCell id="wKqaV-QkhD1benHEGnf--63" value="" style="rounded=0;whiteSpace=wrap;html=1;fillColor=#f5f5f5;fontColor=#333333;strokeColor=#666666;dashed=1;" vertex="1" parent="1">
          <mxGeometry x="1021" y="20" width="459" height="680" as="geometry" />
        </mxCell>
        <mxCell id="wKqaV-QkhD1benHEGnf--159" value="" style="rounded=0;whiteSpace=wrap;html=1;fillColor=#dae8fc;strokeColor=#6c8ebf;" vertex="1" parent="1">
          <mxGeometry x="1036" y="50" width="424" height="100" as="geometry" />
        </mxCell>
        <mxCell id="wKqaV-QkhD1benHEGnf--152" value="" style="rounded=0;whiteSpace=wrap;html=1;fillColor=#ffe6cc;strokeColor=#d79b00;" vertex="1" parent="1">
          <mxGeometry x="1070" y="548.21" width="340" height="120" as="geometry" />
        </mxCell>
        <mxCell id="wKqaV-QkhD1benHEGnf--191" style="edgeStyle=orthogonalEdgeStyle;rounded=0;orthogonalLoop=1;jettySize=auto;html=1;exitX=0.5;exitY=0;exitDx=0;exitDy=0;entryX=1;entryY=0.5;entryDx=0;entryDy=0;elbow=vertical;curved=1;" edge="1" parent="1" source="wKqaV-QkhD1benHEGnf--150" target="wKqaV-QkhD1benHEGnf--187">
          <mxGeometry relative="1" as="geometry" />
        </mxCell>
        <mxCell id="wKqaV-QkhD1benHEGnf--150" value="" style="rounded=0;whiteSpace=wrap;html=1;fillColor=#e1d5e7;strokeColor=#9673a6;" vertex="1" parent="1">
          <mxGeometry x="1070" y="314" width="340" height="90" as="geometry" />
        </mxCell>
        <mxCell id="wKqaV-QkhD1benHEGnf--140" style="edgeStyle=orthogonalEdgeStyle;rounded=0;orthogonalLoop=1;jettySize=auto;html=1;exitX=0.5;exitY=0;exitDx=0;exitDy=0;entryX=0.5;entryY=1;entryDx=0;entryDy=0;" edge="1" parent="1" source="wKqaV-QkhD1benHEGnf--133" target="wKqaV-QkhD1benHEGnf--27">
          <mxGeometry relative="1" as="geometry" />
        </mxCell>
        <mxCell id="wKqaV-QkhD1benHEGnf--133" value="" style="rounded=0;whiteSpace=wrap;html=1;fillColor=#e1d5e7;strokeColor=#9673a6;" vertex="1" parent="1">
          <mxGeometry x="827" y="324" width="170" height="280" as="geometry" />
        </mxCell>
        <mxCell id="wKqaV-QkhD1benHEGnf--61" value="" style="rounded=0;whiteSpace=wrap;html=1;fillColor=#f5f5f5;fontColor=#333333;strokeColor=#666666;dashed=1;" vertex="1" parent="1">
          <mxGeometry x="310" y="20" width="480" height="680" as="geometry" />
        </mxCell>
        <mxCell id="wKqaV-QkhD1benHEGnf--123" value="" style="rounded=0;whiteSpace=wrap;html=1;fillColor=#ffe6cc;strokeColor=#d79b00;" vertex="1" parent="1">
          <mxGeometry x="330" y="548.21" width="440" height="130" as="geometry" />
        </mxCell>
        <mxCell id="wKqaV-QkhD1benHEGnf--84" value="" style="rounded=0;whiteSpace=wrap;html=1;fillColor=#e1d5e7;strokeColor=#9673a6;" vertex="1" parent="1">
          <mxGeometry x="320" y="430" width="450" height="100" as="geometry" />
        </mxCell>
        <mxCell id="wKqaV-QkhD1benHEGnf--79" value="" style="rounded=0;whiteSpace=wrap;html=1;fillColor=#d5e8d4;strokeColor=#82b366;" vertex="1" parent="1">
          <mxGeometry x="440" y="190" width="220" height="220" as="geometry" />
        </mxCell>
        <mxCell id="wKqaV-QkhD1benHEGnf--59" value="" style="rounded=0;whiteSpace=wrap;html=1;fillColor=#dae8fc;strokeColor=#6c8ebf;" vertex="1" parent="1">
          <mxGeometry x="380" y="50" width="320" height="100" as="geometry" />
        </mxCell>
        <mxCell id="wKqaV-QkhD1benHEGnf--28" style="edgeStyle=orthogonalEdgeStyle;rounded=0;orthogonalLoop=1;jettySize=auto;html=1;exitX=0.5;exitY=1;exitDx=0;exitDy=0;" edge="1" parent="1" source="wKqaV-QkhD1benHEGnf--1" target="wKqaV-QkhD1benHEGnf--24">
          <mxGeometry relative="1" as="geometry" />
        </mxCell>
        <mxCell id="wKqaV-QkhD1benHEGnf--1" value="web客户" style="rounded=0;whiteSpace=wrap;html=1;" vertex="1" parent="1">
          <mxGeometry x="410" y="80" width="120" height="60" as="geometry" />
        </mxCell>
        <mxCell id="wKqaV-QkhD1benHEGnf--30" style="edgeStyle=orthogonalEdgeStyle;rounded=0;orthogonalLoop=1;jettySize=auto;html=1;exitX=0.5;exitY=1;exitDx=0;exitDy=0;entryX=0.5;entryY=0;entryDx=0;entryDy=0;" edge="1" parent="1" source="wKqaV-QkhD1benHEGnf--2" target="wKqaV-QkhD1benHEGnf--24">
          <mxGeometry relative="1" as="geometry" />
        </mxCell>
        <mxCell id="wKqaV-QkhD1benHEGnf--66" value="http" style="edgeLabel;html=1;align=center;verticalAlign=middle;resizable=0;points=[];" vertex="1" connectable="0" parent="wKqaV-QkhD1benHEGnf--30">
          <mxGeometry x="0.6" y="2" relative="1" as="geometry">
            <mxPoint as="offset" />
          </mxGeometry>
        </mxCell>
        <mxCell id="wKqaV-QkhD1benHEGnf--2" value="Api客户" style="rounded=0;whiteSpace=wrap;html=1;" vertex="1" parent="1">
          <mxGeometry x="560" y="80" width="120" height="60" as="geometry" />
        </mxCell>
        <mxCell id="wKqaV-QkhD1benHEGnf--31" style="edgeStyle=orthogonalEdgeStyle;rounded=0;orthogonalLoop=1;jettySize=auto;html=1;exitX=0.5;exitY=1;exitDx=0;exitDy=0;entryX=0.5;entryY=0;entryDx=0;entryDy=0;" edge="1" parent="1" source="wKqaV-QkhD1benHEGnf--24" target="wKqaV-QkhD1benHEGnf--25">
          <mxGeometry relative="1" as="geometry" />
        </mxCell>
        <mxCell id="wKqaV-QkhD1benHEGnf--24" value="Nginx&lt;br&gt;(证书管理，反向代理)" style="rounded=0;whiteSpace=wrap;html=1;" vertex="1" parent="1">
          <mxGeometry x="490" y="210" width="120" height="60" as="geometry" />
        </mxCell>
        <mxCell id="wKqaV-QkhD1benHEGnf--32" style="edgeStyle=orthogonalEdgeStyle;rounded=0;orthogonalLoop=1;jettySize=auto;html=1;exitX=1;exitY=0.5;exitDx=0;exitDy=0;entryX=0;entryY=0.5;entryDx=0;entryDy=0;elbow=vertical;curved=1;" edge="1" parent="1" source="wKqaV-QkhD1benHEGnf--25" target="wKqaV-QkhD1benHEGnf--187">
          <mxGeometry relative="1" as="geometry" />
        </mxCell>
        <mxCell id="wKqaV-QkhD1benHEGnf--115" style="edgeStyle=orthogonalEdgeStyle;rounded=0;orthogonalLoop=1;jettySize=auto;html=1;exitX=0.5;exitY=1;exitDx=0;exitDy=0;" edge="1" parent="1" source="wKqaV-QkhD1benHEGnf--25" target="wKqaV-QkhD1benHEGnf--26">
          <mxGeometry relative="1" as="geometry" />
        </mxCell>
        <mxCell id="wKqaV-QkhD1benHEGnf--25" value="SpringCloud Gateway&lt;br&gt;（动态路由，认证授权）" style="rounded=0;whiteSpace=wrap;html=1;" vertex="1" parent="1">
          <mxGeometry x="490" y="320" width="120" height="60" as="geometry" />
        </mxCell>
        <mxCell id="wKqaV-QkhD1benHEGnf--26" value="Sms Server&lt;br&gt;短信接收端" style="rounded=0;whiteSpace=wrap;html=1;" vertex="1" parent="1">
          <mxGeometry x="340" y="460" width="120" height="60" as="geometry" />
        </mxCell>
        <mxCell id="wKqaV-QkhD1benHEGnf--27" value="Nacos&lt;br&gt;（注册中心，配置中心）" style="rounded=0;whiteSpace=wrap;html=1;" vertex="1" parent="1">
          <mxGeometry x="852" y="240" width="120" height="60" as="geometry" />
        </mxCell>
        <mxCell id="wKqaV-QkhD1benHEGnf--39" value="TaskDB&lt;br&gt;（待发送任务）" style="shape=cylinder3;whiteSpace=wrap;html=1;boundedLbl=1;backgroundOutline=1;size=15;" vertex="1" parent="1">
          <mxGeometry x="370" y="575" width="60" height="80" as="geometry" />
        </mxCell>
        <mxCell id="wKqaV-QkhD1benHEGnf--41" style="edgeStyle=orthogonalEdgeStyle;rounded=0;orthogonalLoop=1;jettySize=auto;html=1;exitX=0.5;exitY=1;exitDx=0;exitDy=0;entryX=0.5;entryY=0;entryDx=0;entryDy=0;entryPerimeter=0;" edge="1" parent="1" source="wKqaV-QkhD1benHEGnf--26" target="wKqaV-QkhD1benHEGnf--39">
          <mxGeometry relative="1" as="geometry" />
        </mxCell>
        <mxCell id="wKqaV-QkhD1benHEGnf--50" style="edgeStyle=orthogonalEdgeStyle;rounded=0;orthogonalLoop=1;jettySize=auto;html=1;exitX=0.5;exitY=1;exitDx=0;exitDy=0;" edge="1" parent="1" source="wKqaV-QkhD1benHEGnf--45" target="wKqaV-QkhD1benHEGnf--49">
          <mxGeometry relative="1" as="geometry" />
        </mxCell>
        <mxCell id="wKqaV-QkhD1benHEGnf--102" value="保存下行" style="edgeLabel;html=1;align=center;verticalAlign=middle;resizable=0;points=[];" vertex="1" connectable="0" parent="wKqaV-QkhD1benHEGnf--50">
          <mxGeometry x="-0.1474" y="2" relative="1" as="geometry">
            <mxPoint as="offset" />
          </mxGeometry>
        </mxCell>
        <mxCell id="wKqaV-QkhD1benHEGnf--45" value="Gateway&lt;br&gt;网关发送端" style="rounded=0;whiteSpace=wrap;html=1;" vertex="1" parent="1">
          <mxGeometry x="490" y="460" width="120" height="60" as="geometry" />
        </mxCell>
        <mxCell id="wKqaV-QkhD1benHEGnf--48" value="ReportDB" style="shape=cylinder3;whiteSpace=wrap;html=1;boundedLbl=1;backgroundOutline=1;size=15;" vertex="1" parent="1">
          <mxGeometry x="670" y="570" width="60" height="80" as="geometry" />
        </mxCell>
        <mxCell id="wKqaV-QkhD1benHEGnf--49" value="GatewayDB" style="shape=cylinder3;whiteSpace=wrap;html=1;boundedLbl=1;backgroundOutline=1;size=15;" vertex="1" parent="1">
          <mxGeometry x="520" y="570" width="60" height="80" as="geometry" />
        </mxCell>
        <mxCell id="wKqaV-QkhD1benHEGnf--54" value="BossDB" style="shape=cylinder3;whiteSpace=wrap;html=1;boundedLbl=1;backgroundOutline=1;size=15;" vertex="1" parent="1">
          <mxGeometry x="882" y="630" width="60" height="80" as="geometry" />
        </mxCell>
        <mxCell id="wKqaV-QkhD1benHEGnf--81" style="edgeStyle=orthogonalEdgeStyle;rounded=0;orthogonalLoop=1;jettySize=auto;html=1;exitX=0.5;exitY=1;exitDx=0;exitDy=0;" edge="1" parent="1" source="wKqaV-QkhD1benHEGnf--56" target="wKqaV-QkhD1benHEGnf--48">
          <mxGeometry relative="1" as="geometry" />
        </mxCell>
        <mxCell id="wKqaV-QkhD1benHEGnf--56" value="Push&lt;br&gt;推送程序" style="rounded=0;whiteSpace=wrap;html=1;" vertex="1" parent="1">
          <mxGeometry x="640" y="460" width="120" height="60" as="geometry" />
        </mxCell>
        <mxCell id="wKqaV-QkhD1benHEGnf--60" value="普通客户" style="text;html=1;align=center;verticalAlign=middle;whiteSpace=wrap;rounded=0;" vertex="1" parent="1">
          <mxGeometry x="380" y="50" width="60" height="30" as="geometry" />
        </mxCell>
        <mxCell id="wKqaV-QkhD1benHEGnf--62" value="普通平台" style="text;html=1;align=center;verticalAlign=middle;whiteSpace=wrap;rounded=0;fontStyle=1" vertex="1" parent="1">
          <mxGeometry x="310" y="20" width="60" height="30" as="geometry" />
        </mxCell>
        <mxCell id="wKqaV-QkhD1benHEGnf--65" value="标准平台" style="text;html=1;align=center;verticalAlign=middle;whiteSpace=wrap;rounded=0;fontStyle=1" vertex="1" parent="1">
          <mxGeometry x="1021" y="20" width="60" height="30" as="geometry" />
        </mxCell>
        <mxCell id="wKqaV-QkhD1benHEGnf--71" style="edgeStyle=orthogonalEdgeStyle;rounded=0;orthogonalLoop=1;jettySize=auto;html=1;exitX=0.5;exitY=1;exitDx=0;exitDy=0;" edge="1" parent="1" source="wKqaV-QkhD1benHEGnf--67" target="wKqaV-QkhD1benHEGnf--70">
          <mxGeometry relative="1" as="geometry" />
        </mxCell>
        <mxCell id="wKqaV-QkhD1benHEGnf--67" value="CMPP客户端" style="rounded=0;whiteSpace=wrap;html=1;" vertex="1" parent="1">
          <mxGeometry x="1058" y="80" width="120" height="60" as="geometry" />
        </mxCell>
        <mxCell id="wKqaV-QkhD1benHEGnf--73" style="edgeStyle=orthogonalEdgeStyle;rounded=0;orthogonalLoop=1;jettySize=auto;html=1;exitX=0.5;exitY=1;exitDx=0;exitDy=0;entryX=0.5;entryY=0;entryDx=0;entryDy=0;" edge="1" parent="1" source="wKqaV-QkhD1benHEGnf--68" target="wKqaV-QkhD1benHEGnf--70">
          <mxGeometry relative="1" as="geometry" />
        </mxCell>
        <mxCell id="wKqaV-QkhD1benHEGnf--68" value="SMGP客户端" style="rounded=0;whiteSpace=wrap;html=1;" vertex="1" parent="1">
          <mxGeometry x="1190" y="80" width="120" height="60" as="geometry" />
        </mxCell>
        <mxCell id="wKqaV-QkhD1benHEGnf--72" style="edgeStyle=orthogonalEdgeStyle;rounded=0;orthogonalLoop=1;jettySize=auto;html=1;exitX=0.5;exitY=1;exitDx=0;exitDy=0;entryX=0.5;entryY=0;entryDx=0;entryDy=0;" edge="1" parent="1" source="wKqaV-QkhD1benHEGnf--69" target="wKqaV-QkhD1benHEGnf--70">
          <mxGeometry relative="1" as="geometry" />
        </mxCell>
        <mxCell id="wKqaV-QkhD1benHEGnf--69" value="SGIP客户端" style="rounded=0;whiteSpace=wrap;html=1;" vertex="1" parent="1">
          <mxGeometry x="1330" y="80" width="120" height="60" as="geometry" />
        </mxCell>
        <mxCell id="wKqaV-QkhD1benHEGnf--70" value="Gateway Server&lt;br&gt;(接收三网协议，短信接收端)" style="rounded=0;whiteSpace=wrap;html=1;" vertex="1" parent="1">
          <mxGeometry x="1088" y="339" width="120" height="60" as="geometry" />
        </mxCell>
        <mxCell id="wKqaV-QkhD1benHEGnf--154" style="edgeStyle=orthogonalEdgeStyle;rounded=0;orthogonalLoop=1;jettySize=auto;html=1;exitX=0;exitY=0.5;exitDx=0;exitDy=0;entryX=1;entryY=0.5;entryDx=0;entryDy=0;elbow=vertical;curved=1;" edge="1" parent="1" source="wKqaV-QkhD1benHEGnf--75" target="wKqaV-QkhD1benHEGnf--84">
          <mxGeometry relative="1" as="geometry" />
        </mxCell>
        <mxCell id="wKqaV-QkhD1benHEGnf--155" style="edgeStyle=orthogonalEdgeStyle;rounded=0;orthogonalLoop=1;jettySize=auto;html=1;exitX=0;exitY=0.5;exitDx=0;exitDy=0;entryX=1;entryY=0.5;entryDx=0;entryDy=0;curved=1;" edge="1" parent="1" source="wKqaV-QkhD1benHEGnf--75" target="wKqaV-QkhD1benHEGnf--123">
          <mxGeometry relative="1" as="geometry" />
        </mxCell>
        <mxCell id="wKqaV-QkhD1benHEGnf--157" style="edgeStyle=orthogonalEdgeStyle;rounded=0;orthogonalLoop=1;jettySize=auto;html=1;exitX=1;exitY=0.5;exitDx=0;exitDy=0;entryX=0;entryY=0.5;entryDx=0;entryDy=0;curved=1;" edge="1" parent="1" source="wKqaV-QkhD1benHEGnf--75" target="wKqaV-QkhD1benHEGnf--150">
          <mxGeometry relative="1" as="geometry" />
        </mxCell>
        <mxCell id="wKqaV-QkhD1benHEGnf--158" style="edgeStyle=orthogonalEdgeStyle;rounded=0;orthogonalLoop=1;jettySize=auto;html=1;exitX=1;exitY=0.5;exitDx=0;exitDy=0;entryX=0;entryY=0.5;entryDx=0;entryDy=0;curved=1;" edge="1" parent="1" source="wKqaV-QkhD1benHEGnf--75" target="wKqaV-QkhD1benHEGnf--152">
          <mxGeometry relative="1" as="geometry" />
        </mxCell>
        <mxCell id="wKqaV-QkhD1benHEGnf--75" value="BOSS&lt;br&gt;运营平台" style="rounded=0;whiteSpace=wrap;html=1;" vertex="1" parent="1">
          <mxGeometry x="852" y="554" width="120" height="40" as="geometry" />
        </mxCell>
        <mxCell id="wKqaV-QkhD1benHEGnf--76" value="Monitor&lt;br&gt;(监控、告警)" style="rounded=0;whiteSpace=wrap;html=1;" vertex="1" parent="1">
          <mxGeometry x="852" y="454" width="120" height="40" as="geometry" />
        </mxCell>
        <mxCell id="wKqaV-QkhD1benHEGnf--77" value="BIll&lt;br&gt;(账单)" style="rounded=0;whiteSpace=wrap;html=1;" vertex="1" parent="1">
          <mxGeometry x="852" y="504" width="120" height="40" as="geometry" />
        </mxCell>
        <mxCell id="wKqaV-QkhD1benHEGnf--78" value="Dashboard&lt;br&gt;(大屏看板)" style="rounded=0;whiteSpace=wrap;html=1;" vertex="1" parent="1">
          <mxGeometry x="852" y="404" width="120" height="40" as="geometry" />
        </mxCell>
        <mxCell id="wKqaV-QkhD1benHEGnf--80" value="接入层" style="text;html=1;align=center;verticalAlign=middle;whiteSpace=wrap;rounded=0;" vertex="1" parent="1">
          <mxGeometry x="440" y="190" width="60" height="30" as="geometry" />
        </mxCell>
        <mxCell id="wKqaV-QkhD1benHEGnf--134" value="共享服务" style="text;html=1;align=center;verticalAlign=middle;whiteSpace=wrap;rounded=0;" vertex="1" parent="1">
          <mxGeometry x="827" y="314" width="60" height="30" as="geometry" />
        </mxCell>
        <mxCell id="wKqaV-QkhD1benHEGnf--135" value="普通平台服务" style="text;html=1;align=center;verticalAlign=middle;whiteSpace=wrap;rounded=0;" vertex="1" parent="1">
          <mxGeometry x="310" y="430" width="100" height="30" as="geometry" />
        </mxCell>
        <mxCell id="wKqaV-QkhD1benHEGnf--137" style="edgeStyle=orthogonalEdgeStyle;rounded=0;orthogonalLoop=1;jettySize=auto;html=1;exitX=0.5;exitY=1;exitDx=0;exitDy=0;entryX=0.5;entryY=0;entryDx=0;entryDy=0;entryPerimeter=0;" edge="1" parent="1" source="wKqaV-QkhD1benHEGnf--75" target="wKqaV-QkhD1benHEGnf--54">
          <mxGeometry relative="1" as="geometry" />
        </mxCell>
        <mxCell id="wKqaV-QkhD1benHEGnf--189" value="" style="edgeStyle=orthogonalEdgeStyle;rounded=0;orthogonalLoop=1;jettySize=auto;html=1;exitX=0.5;exitY=0;exitDx=0;exitDy=0;" edge="1" parent="1" source="wKqaV-QkhD1benHEGnf--133" target="wKqaV-QkhD1benHEGnf--27">
          <mxGeometry relative="1" as="geometry" />
        </mxCell>
        <mxCell id="wKqaV-QkhD1benHEGnf--141" value="SpringCloud Admin&lt;br&gt;服务监控" style="rounded=0;whiteSpace=wrap;html=1;" vertex="1" parent="1">
          <mxGeometry x="852" y="344" width="120" height="40" as="geometry" />
        </mxCell>
        <mxCell id="wKqaV-QkhD1benHEGnf--142" value="StandGateway&lt;br&gt;(标准网关，短信发送端)" style="rounded=0;whiteSpace=wrap;html=1;" vertex="1" parent="1">
          <mxGeometry x="1270" y="339" width="120" height="60" as="geometry" />
        </mxCell>
        <mxCell id="wKqaV-QkhD1benHEGnf--143" value="StandStaskDB&lt;br&gt;(（待发送任务）)" style="shape=cylinder3;whiteSpace=wrap;html=1;boundedLbl=1;backgroundOutline=1;size=15;" vertex="1" parent="1">
          <mxGeometry x="1118" y="568.21" width="60" height="80" as="geometry" />
        </mxCell>
        <mxCell id="wKqaV-QkhD1benHEGnf--144" value="StandGatewayDB" style="shape=cylinder3;whiteSpace=wrap;html=1;boundedLbl=1;backgroundOutline=1;size=15;" vertex="1" parent="1">
          <mxGeometry x="1300" y="568.21" width="60" height="80" as="geometry" />
        </mxCell>
        <mxCell id="wKqaV-QkhD1benHEGnf--145" style="edgeStyle=orthogonalEdgeStyle;rounded=0;orthogonalLoop=1;jettySize=auto;html=1;exitX=0.5;exitY=1;exitDx=0;exitDy=0;entryX=0.5;entryY=0;entryDx=0;entryDy=0;entryPerimeter=0;" edge="1" parent="1" source="wKqaV-QkhD1benHEGnf--70" target="wKqaV-QkhD1benHEGnf--143">
          <mxGeometry relative="1" as="geometry" />
        </mxCell>
        <mxCell id="wKqaV-QkhD1benHEGnf--146" style="edgeStyle=orthogonalEdgeStyle;rounded=0;orthogonalLoop=1;jettySize=auto;html=1;exitX=0.5;exitY=1;exitDx=0;exitDy=0;entryX=0.5;entryY=0;entryDx=0;entryDy=0;entryPerimeter=0;" edge="1" parent="1" source="wKqaV-QkhD1benHEGnf--142" target="wKqaV-QkhD1benHEGnf--144">
          <mxGeometry relative="1" as="geometry" />
        </mxCell>
        <mxCell id="wKqaV-QkhD1benHEGnf--149" value="保存下行" style="edgeLabel;html=1;align=center;verticalAlign=middle;resizable=0;points=[];" vertex="1" connectable="0" parent="wKqaV-QkhD1benHEGnf--146">
          <mxGeometry x="-0.2749" relative="1" as="geometry">
            <mxPoint y="1" as="offset" />
          </mxGeometry>
        </mxCell>
        <mxCell id="wKqaV-QkhD1benHEGnf--151" value="标准平台服务" style="text;html=1;align=center;verticalAlign=middle;whiteSpace=wrap;rounded=0;" vertex="1" parent="1">
          <mxGeometry x="1070" y="310" width="80" height="30" as="geometry" />
        </mxCell>
        <mxCell id="wKqaV-QkhD1benHEGnf--160" value="标准客户" style="text;html=1;align=center;verticalAlign=middle;whiteSpace=wrap;rounded=0;" vertex="1" parent="1">
          <mxGeometry x="1037" y="50" width="60" height="30" as="geometry" />
        </mxCell>
        <mxCell id="wKqaV-QkhD1benHEGnf--166" value="Kafka&lt;br&gt;（下行发送，状态报告推送）" style="rounded=0;whiteSpace=wrap;html=1;" vertex="1" parent="1">
          <mxGeometry x="849" y="150" width="120" height="60" as="geometry" />
        </mxCell>
        <mxCell id="wKqaV-QkhD1benHEGnf--186" value="Redis缓存" style="rounded=0;whiteSpace=wrap;html=1;" vertex="1" parent="1">
          <mxGeometry x="849" y="70" width="120" height="60" as="geometry" />
        </mxCell>
        <mxCell id="wKqaV-QkhD1benHEGnf--188" value="中间件" style="text;html=1;align=center;verticalAlign=middle;whiteSpace=wrap;rounded=0;" vertex="1" parent="1">
          <mxGeometry x="824" y="40" width="60" height="30" as="geometry" />
        </mxCell>
        <mxCell id="wKqaV-QkhD1benHEGnf--190" style="edgeStyle=orthogonalEdgeStyle;rounded=0;orthogonalLoop=1;jettySize=auto;html=1;exitX=0.5;exitY=0;exitDx=0;exitDy=0;entryX=0;entryY=0.5;entryDx=0;entryDy=0;curved=1;" edge="1" parent="1" source="wKqaV-QkhD1benHEGnf--84" target="wKqaV-QkhD1benHEGnf--187">
          <mxGeometry relative="1" as="geometry" />
        </mxCell>
        <mxCell id="wKqaV-QkhD1benHEGnf--192" value="&lt;ol&gt;&lt;li&gt;&lt;br&gt;&lt;/li&gt;&lt;/ol&gt;" style="text;html=1;align=center;verticalAlign=middle;whiteSpace=wrap;rounded=0;" vertex="1" parent="1">
          <mxGeometry x="130" y="1090" width="500" height="30" as="geometry" />
        </mxCell>
        <mxCell id="wKqaV-QkhD1benHEGnf--193" value="&lt;h1 style=&quot;margin-top: 0px;&quot;&gt;下行流程&lt;/h1&gt;&lt;p&gt;1.&lt;span style=&quot;text-align: center; background-color: initial;&quot;&gt;短信收到后首先入发送任务库，然后有线程一直从发送任&lt;/span&gt;&lt;span style=&quot;text-align: center; background-color: initial;&quot;&gt;务送到发送队列；&lt;br&gt;&lt;/span&gt;&lt;span style=&quot;text-align: center;&quot;&gt;2.网关监听发送队列如有数据则发送出去；&lt;/span&gt;&lt;span style=&quot;text-align: center; background-color: initial;&quot;&gt;&lt;br&gt;&lt;/span&gt;&lt;/p&gt;&lt;p&gt;&lt;span style=&quot;text-align: center; background-color: initial;&quot;&gt;&lt;br&gt;&lt;/span&gt;&lt;/p&gt;" style="text;html=1;whiteSpace=wrap;overflow=hidden;rounded=0;" vertex="1" parent="1">
          <mxGeometry x="145" y="780" width="440" height="120" as="geometry" />
        </mxCell>
        <mxCell id="wKqaV-QkhD1benHEGnf--194" value="&lt;h1 style=&quot;margin-top: 0px;&quot;&gt;状态推送流程&lt;/h1&gt;&lt;p&gt;1.&lt;span style=&quot;text-align: center; background-color: initial;&quot;&gt;网关收到状态报告后首先入状态报告库，同时有一个线程一直取状态报告库的数据送到状态推送队列；&lt;br&gt;&lt;/span&gt;&lt;span style=&quot;text-align: center; background-color: initial;&quot;&gt;2.推送程序负责监听推送队列进行推送&lt;/span&gt;&lt;/p&gt;&lt;p&gt;&lt;span style=&quot;text-align: center; background-color: initial;&quot;&gt;&lt;br&gt;&lt;/span&gt;&lt;/p&gt;" style="text;html=1;whiteSpace=wrap;overflow=hidden;rounded=0;" vertex="1" parent="1">
          <mxGeometry x="145" y="900" width="580" height="100" as="geometry" />
        </mxCell>
      </root>
    </mxGraphModel>
  </diagram>
</mxfile>
